<svg width="658" height="71" viewBox="0 0 658 71" fill="none" xmlns="http://www.w3.org/2000/svg">
<path d="M83.3808 26.5035C87.8613 8.39167 106.173 -2.64961 124.28 1.8326C142.39 6.31309 153.431 24.6217 148.951 42.7301C144.469 60.8386 126.16 71.8833 108.05 67.4011C89.945 62.9223 78.8969 44.6103 83.3808 26.5035Z" fill="#F1F2F2"/>
<path d="M84.3516 23.2719H147.978C144.297 12.9748 135.693 4.65536 124.279 1.8326C107.278 -2.37588 90.0946 7.10347 84.3516 23.2719Z" fill="#0096D6"/>
<path d="M149.218 41.56C149.234 41.4881 149.247 41.4163 149.263 41.3444C149.288 41.2196 149.312 41.093 149.338 40.9681C149.352 40.8945 149.365 40.8227 149.379 40.7491C149.403 40.6191 149.427 40.4891 149.449 40.359C149.461 40.294 149.472 40.2273 149.484 40.1623C149.511 39.9998 149.537 39.8373 149.561 39.6747C149.566 39.6422 149.571 39.6114 149.576 39.5789C149.605 39.3839 149.632 39.1889 149.658 38.9938C149.665 38.9425 149.67 38.8912 149.677 38.8382C149.696 38.6945 149.713 38.5525 149.728 38.4088C149.735 38.3403 149.744 38.2736 149.75 38.2052C149.764 38.0769 149.778 37.9486 149.79 37.8203C149.797 37.7484 149.803 37.6783 149.81 37.6081C149.822 37.4781 149.833 37.3498 149.843 37.2198C149.848 37.1548 149.853 37.0881 149.858 37.023C149.868 36.8742 149.879 36.7254 149.887 36.5765C149.891 36.5303 149.892 36.4859 149.896 36.4414C149.906 36.2464 149.916 36.0513 149.923 35.8563C149.923 35.8255 149.925 35.793 149.927 35.7605C149.932 35.5997 149.937 35.4372 149.94 35.2764C149.94 35.2148 149.94 35.1532 149.944 35.0933C149.945 34.9599 149.947 34.8281 149.947 34.6947C149.947 34.628 149.947 34.5613 149.947 34.4945C149.947 34.3645 149.947 34.2345 149.944 34.1045C149.944 34.0395 149.942 33.9762 149.94 33.9112C149.937 33.7692 149.933 33.6255 149.928 33.4835C149.928 33.4339 149.925 33.3842 149.923 33.3346C149.908 32.948 149.887 32.5631 149.86 32.1782C149.856 32.1268 149.851 32.0772 149.848 32.0259C149.838 31.8856 149.826 31.7453 149.814 31.6051C149.809 31.5435 149.802 31.4819 149.797 31.422C149.785 31.2903 149.771 31.1568 149.757 31.0251C149.75 30.9652 149.745 30.9036 149.737 30.8438C149.721 30.7035 149.704 30.5632 149.687 30.4229C149.682 30.3733 149.675 30.3237 149.668 30.2758C149.619 29.8926 149.562 29.5111 149.501 29.1313C149.495 29.0971 149.489 29.0629 149.484 29.0286C149.458 28.8747 149.43 28.7224 149.403 28.5684C149.393 28.5154 149.383 28.4641 149.374 28.4111C149.348 28.2742 149.323 28.1373 149.295 28.0005C149.285 27.9457 149.273 27.891 149.263 27.8379C149.234 27.6977 149.205 27.5574 149.174 27.4188C149.164 27.3726 149.153 27.3264 149.143 27.2785C149.105 27.1075 149.066 26.9364 149.025 26.7653L149.016 26.7277C148.974 26.548 148.929 26.3701 148.883 26.1922C148.626 25.2017 148.327 24.2265 147.985 23.2685H84.353C83.98 24.3189 83.655 25.395 83.3813 26.5001C82.259 31.0319 82.1119 35.5774 82.803 39.9142C82.8064 39.9331 82.8099 39.9536 82.8116 39.9724C82.8372 40.1315 82.8629 40.2889 82.892 40.4463C82.8971 40.4788 82.904 40.513 82.9091 40.5455C82.9347 40.6926 82.9621 40.8415 82.9912 40.9886C82.9998 41.0331 83.0083 41.0758 83.0169 41.1203C83.0442 41.2589 83.0716 41.3975 83.1007 41.5378C83.111 41.5908 83.1229 41.6421 83.1349 41.6951C83.164 41.8269 83.1914 41.9586 83.2222 42.0903C83.2358 42.1519 83.2512 42.2118 83.2649 42.2734C83.294 42.3966 83.3214 42.5197 83.3522 42.6412C83.3744 42.7336 83.3984 42.826 83.4223 42.9183C83.4582 43.0569 83.4942 43.1955 83.5301 43.3341C83.566 43.4709 83.6037 43.6061 83.6413 43.7429C83.6584 43.8028 83.6755 43.8627 83.6926 43.9226C83.7303 44.0509 83.7662 44.1809 83.8055 44.3092C83.8243 44.3691 83.8432 44.4289 83.8603 44.4888C83.8996 44.6171 83.939 44.7437 83.98 44.872C83.9988 44.9302 84.0177 44.9901 84.0365 45.0482C84.0775 45.1766 84.1203 45.3049 84.1631 45.4315C84.1836 45.4896 84.2024 45.5461 84.223 45.6042C84.2674 45.7326 84.3119 45.8609 84.3581 45.9892C84.3684 46.0182 84.3786 46.049 84.3889 46.0798C84.418 46.1585 84.4453 46.2389 84.4744 46.3176H147.843C147.872 46.2389 147.898 46.1585 147.927 46.0798H147.932C148.004 45.8814 148.07 45.6829 148.139 45.4828C148.146 45.4623 148.153 45.4434 148.159 45.4246C148.247 45.1646 148.332 44.9011 148.414 44.6377C148.426 44.6 148.438 44.5641 148.449 44.5265C148.524 44.2801 148.596 44.032 148.666 43.7823C148.681 43.731 148.697 43.6779 148.712 43.6249C148.794 43.3272 148.873 43.0295 148.946 42.7284C148.994 42.5334 149.04 42.3401 149.085 42.1451C149.099 42.0835 149.112 42.0202 149.126 41.9586C149.155 41.8252 149.186 41.6917 149.213 41.5583" fill="#0F222A"/>
<path d="M165.424 26.5035C169.904 8.39165 188.218 -2.6496 206.323 1.8326C224.433 6.31308 235.474 24.6216 230.994 42.7301C226.512 60.8385 208.203 71.8831 190.093 67.4009C171.988 62.9222 160.94 44.6102 165.424 26.5035Z" fill="#F1F2F2"/>
<path d="M186.897 2.79064C176.585 6.46706 168.252 15.0773 165.424 26.5035C161.21 43.5187 170.71 60.7119 186.896 66.4412V2.79064H186.897Z" fill="#00A94F"/>
<path d="M209.576 2.81122V66.4242C219.865 62.7375 228.172 54.1358 230.995 42.7318C235.2 25.7354 225.729 8.56109 209.576 2.81293" fill="#FDBB30"/>
<path d="M247.469 26.5035C251.949 8.39167 270.261 -2.64961 288.368 1.8326C306.478 6.31309 317.519 24.6217 313.039 42.7301C308.557 60.8386 290.248 71.8833 272.138 67.4011C254.033 62.9223 242.985 44.6103 247.469 26.5035Z" fill="#EF3827"/>
<path d="M276.769 48.1653C268.91 48.1653 262.541 41.7961 262.541 33.9369C262.541 26.0776 268.91 19.7136 276.769 19.7136C280.688 19.7136 284.236 21.296 286.806 23.8605C283.624 19.3064 278.343 16.3245 272.365 16.3245C262.64 16.3245 254.748 24.2095 254.748 33.9369C254.748 43.6643 262.64 51.5492 272.365 51.5492C278.343 51.5492 283.624 48.5673 286.806 44.0201C284.238 46.5777 280.688 48.167 276.769 48.167" fill="white"/>
<path d="M293.824 26.3856L297.11 31.1244L302.637 29.4649L299.141 34.0601L302.425 38.804L296.98 36.8965L293.483 41.4865L293.611 35.7144L288.166 33.8069L293.695 32.156L293.824 26.3856Z" fill="white"/>
<path d="M329.512 26.5035C333.992 8.39167 352.306 -2.64961 370.411 1.8326C388.521 6.31309 399.562 24.6217 395.082 42.7301C390.6 60.8386 372.291 71.8833 354.181 67.4011C336.076 62.9223 325.028 44.6103 329.512 26.5035Z" fill="#F1F2F2"/>
<path d="M393.535 21.7716H367.369V26.9432H395.196C394.782 25.1709 394.223 23.443 393.535 21.7716ZM386.856 11.4249H367.369V16.6016H390.864C389.701 14.7557 388.358 13.021 386.856 11.4249ZM337.903 57.9799H386.695C388.206 56.406 389.571 54.6764 390.764 52.8083H333.841C335.022 54.6542 336.382 56.3872 337.903 57.9799ZM370.411 1.83089C369.396 1.57941 368.382 1.38096 367.369 1.22528V6.25322H380.65C377.587 4.27215 374.15 2.75642 370.411 1.83089ZM395.985 32.1131H367.369V37.2899H395.966C396.106 35.5484 396.11 33.8188 395.985 32.1131ZM331.131 47.6383H393.465C394.118 46.0696 394.661 44.4307 395.082 42.7302C395.104 42.6412 395.123 42.5522 395.145 42.4616H329.439C329.865 44.2356 330.432 45.9669 331.131 47.6366M354.182 67.3994C356.18 67.8938 358.182 68.1983 360.167 68.3266H364.466C370.181 67.9605 375.64 66.142 380.364 63.1516H344.214C347.207 65.0471 350.552 66.503 354.182 67.3994Z" fill="#EF3827"/>
<path d="M364.809 35.3945L364.081 34.8625L363.348 35.3945L363.627 34.5374L362.898 34.0054H363.8L364.081 33.1483L364.356 34.0054H365.259L364.531 34.5374L364.809 35.3945ZM361.222 8.17454L361.499 9.03677L360.77 8.50472L360.04 9.03677L360.32 8.17454L359.59 7.64763H360.491L360.772 6.7854L361.051 7.64763H361.954L361.224 8.17454H361.222ZM361.222 15.9517L361.499 16.8088L360.77 16.2767L360.04 16.8088L360.32 15.9517L359.59 15.4196H360.491L360.772 14.5625L361.051 15.4196H361.954L361.224 15.9517H361.222ZM361.155 23.5697L361.434 24.4268L360.704 23.8948L359.975 24.4268L360.254 23.5697L359.521 23.0377H360.425L360.704 22.1806L360.981 23.0377H361.884L361.155 23.5697ZM361.367 31.9576L360.637 31.4256L359.908 31.9576L360.185 31.1005L359.455 30.5685H360.358L360.637 29.7114L360.914 30.5685H361.817L361.087 31.1005L361.367 31.9576ZM357.776 11.9416L358.057 12.7987L357.328 12.2718L356.594 12.7987L356.875 11.9416L356.146 11.4096H357.048L357.328 10.5525L357.604 11.4096H358.505L357.776 11.9416ZM357.776 19.4776L358.057 20.3347L357.328 19.8026L356.594 20.3347L356.875 19.4776L356.146 18.9455H357.048L357.328 18.0884L357.604 18.9455H358.505L357.776 19.4776ZM357.776 27.1794L358.057 28.0417L357.328 27.5096L356.594 28.0417L356.875 27.1794L356.146 26.6525H357.048L357.328 25.7903L357.604 26.6525H358.505L357.776 27.1794ZM358.057 35.3945L357.328 34.8625L356.594 35.3945L356.875 34.5374L356.146 34.0054H357.048L357.328 33.1483L357.604 34.0054H358.505L357.776 34.5374L358.057 35.3945ZM354.466 8.17454L354.747 9.03677L354.016 8.50472L353.284 9.03677L353.564 8.17454L352.836 7.64763H353.737L354.016 6.7854L354.295 7.64763H355.198L354.468 8.17454H354.466ZM354.466 15.9517L354.747 16.8088L354.016 16.2767L353.284 16.8088L353.564 15.9517L352.836 15.4196H353.737L354.016 14.5625L354.295 15.4196H355.198L354.468 15.9517H354.466ZM354.401 23.5697L354.68 24.4268L353.948 23.8948L353.219 24.4268L353.498 23.5697L352.767 23.0377H353.669L353.949 22.1806L354.228 23.0377H355.132L354.403 23.5697H354.401ZM354.611 31.9576L353.883 31.4256L353.152 31.9576L353.429 31.1005L352.701 30.5685H353.602L353.883 29.7114L354.162 30.5685H355.063L354.334 31.1005L354.613 31.9576H354.611ZM351.024 4.41257L351.303 5.26966L350.574 4.73761L349.842 5.26966L350.121 4.41257L349.392 3.88052H350.295L350.574 3.02343L350.853 3.88052H351.756L351.026 4.41257H351.024ZM351.024 11.9434L351.303 12.8005L350.574 12.2735L349.842 12.8005L350.121 11.9434L349.392 11.4113H350.295L350.574 10.5542L350.853 11.4113H351.756L351.026 11.9434H351.024ZM351.024 19.4793L351.303 20.3364L350.574 19.8043L349.842 20.3364L350.121 19.4793L349.392 18.9472H350.295L350.574 18.0901L350.853 18.9472H351.756L351.026 19.4793H351.024ZM351.024 27.1811L351.303 28.0434L350.574 27.5113L349.842 28.0434L350.121 27.1811L349.392 26.6542H350.295L350.574 25.792L350.853 26.6542H351.756L351.026 27.1811H351.024ZM351.303 35.3962L350.574 34.8642L349.842 35.3962L350.121 34.5391L349.392 34.0071H350.295L350.574 33.15L350.853 34.0071H351.756L351.026 34.5391L351.305 35.3962H351.303ZM347.715 7.90595L347.996 8.76818L347.262 8.23613L346.533 8.76818L346.814 7.90595L346.083 7.37903H346.985L347.264 6.52194L347.544 7.37903H348.446L347.717 7.90595H347.715ZM347.715 15.6814L347.996 16.5385L347.262 16.0116L346.533 16.5385L346.814 15.6814L346.083 15.1493H346.985L347.264 14.2922L347.544 15.1493H348.446L347.717 15.6814H347.715ZM347.647 23.3011L347.928 24.1582L347.199 23.6262L346.465 24.1582L346.745 23.3011L346.017 22.7691H346.918L347.199 21.912L347.474 22.7691H348.377L347.647 23.3011ZM347.861 31.6941L347.13 31.1621L346.402 31.6941L346.68 30.8319L345.948 30.305H346.85L347.13 29.4479L347.409 30.305H348.312L347.584 30.8319L347.863 31.6941H347.861ZM344.273 11.9451L344.554 12.8022L343.825 12.2752L343.091 12.8022L343.372 11.9451L342.643 11.413H343.541L343.823 10.5559L344.099 11.413H345L344.272 11.9451H344.273ZM344.273 19.481L344.554 20.3381L343.825 19.806L343.091 20.3381L343.372 19.481L342.643 18.9489H343.541L343.823 18.0918L344.099 18.9489H345L344.272 19.481H344.273ZM344.273 27.1829L344.554 28.0451L343.825 27.513L343.091 28.0451L343.372 27.1829L342.643 26.6559H343.541L343.823 25.7937L344.099 26.6559H345L344.272 27.1829H344.273ZM344.554 35.3979L343.825 34.8659L343.091 35.3979L343.372 34.5409L342.643 34.0088H343.541L343.823 33.1517L344.099 34.0088H345L344.272 34.5409L344.552 35.3979H344.554ZM340.963 15.6095L341.242 16.4666L340.513 15.9346L339.781 16.4666L340.061 15.6095L339.331 15.0775H340.234L340.513 14.2204L340.79 15.0775H341.695L340.965 15.6095H340.963ZM340.896 23.2293L341.175 24.0864L340.446 23.5543L339.714 24.0864L339.993 23.2293L339.264 22.6972H340.166L340.446 21.8401L340.722 22.6972H341.625L340.896 23.2293ZM341.105 31.6172L340.376 31.0851L339.647 31.6172L339.925 30.7601L339.192 30.228H340.096L340.374 29.3709L340.655 30.228H341.557L340.824 30.7601L341.103 31.6172H341.105ZM357.046 3.88052L357.326 3.02343L357.602 3.88052H358.503L357.775 4.41257L358.055 5.26966L357.326 4.73761L356.593 5.26966L356.873 4.41257L356.144 3.88052H357.046ZM363.798 26.6542L364.079 25.792L364.354 26.6542H365.258L364.529 27.1811L364.808 28.0434L364.079 27.5113L363.347 28.0434L363.626 27.1811L362.897 26.6542H363.798ZM363.798 18.9472L364.079 18.0901L364.354 18.9472H365.258L364.529 19.4793L364.808 20.3364L364.079 19.8043L363.347 20.3364L363.626 19.4793L362.897 18.9472H363.798ZM363.798 11.4113L364.079 10.5542L364.354 11.4113H365.258L364.529 11.9434L364.808 12.8005L364.079 12.2735L363.347 12.8005L363.626 11.9434L362.897 11.4113H363.798ZM363.798 3.88052L364.079 3.02343L364.354 3.88052H365.258L364.529 4.41257L364.808 5.26966L364.079 4.73761L363.347 5.26966L363.626 4.41257L362.897 3.88052H363.798ZM337.519 19.4776L337.798 20.3347L337.068 19.8026L336.339 20.3347L336.618 19.4776L335.887 18.9455H336.789L337.069 18.0884L337.348 18.9455H338.251L337.521 19.4776H337.519ZM337.519 27.1794L337.798 28.0417L337.068 27.5096L336.339 28.0417L336.618 27.1794L335.887 26.6525H336.789L337.069 25.7903L337.348 26.6525H338.251L337.521 27.1794H337.519ZM337.798 35.3945L337.068 34.8625L336.339 35.3945L336.618 34.5374L335.885 34.0054H336.787L337.068 33.1483L337.346 34.0054H338.251L337.521 34.5374L337.8 35.3945H337.798ZM334.14 23.0924L334.421 23.9495L333.691 23.4175L332.962 23.9495L333.241 23.0924L332.51 22.5604H333.413L333.691 21.7033L333.971 22.5604H334.873L334.142 23.0924H334.14ZM334.354 31.4803L333.626 30.9482L332.892 31.4803L333.172 30.6232L332.443 30.0912H333.345L333.626 29.2341L333.901 30.0912H334.806L334.074 30.6232L334.354 31.4803ZM331.046 35.3962L330.317 34.8642L329.586 35.3962L329.865 34.5391L329.136 34.0071H330.04L330.319 33.15L330.599 34.0071H331.497L330.769 34.5391L331.047 35.3962H331.046ZM367.369 1.22541C367.037 1.17409 364.575 0.903789 364.243 0.864441L358.172 1.08855C351.878 1.86353 345.976 4.4023 341.115 8.30969L341.24 8.6929L340.924 8.46195C339.807 9.37379 338.746 10.3592 337.75 11.4113H338.248L337.518 11.9434L337.796 12.8005L337.066 12.2735L336.775 12.484C336.094 13.2692 335.447 14.0869 334.838 14.9372H334.939L334.727 15.0912C334.58 15.2999 334.433 15.5103 334.291 15.7224L334.486 16.3263L334.084 16.0355C332.029 19.1559 330.459 22.6699 329.511 26.502C329.499 26.5516 329.487 26.6029 329.475 26.6525H330.035L330.313 25.7903L330.594 26.6525H331.492L330.763 27.1794L331.042 28.0417L330.313 27.5096L329.583 28.0417L329.862 27.1794L329.427 26.8647C328.596 30.3854 328.348 33.9096 328.623 37.3345H367.369V1.22541Z" fill="#223C72"/>
<path d="M411.553 26.4744C416.029 8.38308 434.322 -2.64565 452.406 1.83146C470.496 6.30687 481.525 24.5947 477.049 42.6826C472.572 60.7704 454.284 71.8026 436.195 67.3255C418.11 62.8518 407.075 44.5606 411.553 26.4744Z" fill="#FFD203"/>
<path d="M411.633 26.4744C407.978 41.2352 414.658 56.1293 427.067 63.5405V5.62335C419.62 10.0765 413.882 17.3835 411.633 26.4744Z" fill="#223C72"/>
<path d="M461.908 5.74304V63.4021C469.251 58.937 474.9 51.6847 477.127 42.6826C480.758 28.0056 474.181 13.1969 461.908 5.74304Z" fill="#EF3827"/>
<mask id="mask0_0_54" style="mask-type:luminance" maskUnits="userSpaceOnUse" x="492" y="0" width="69" height="69">
<path d="M526.354 0.835225C511.191 0.835225 497.404 11.1186 493.598 26.5018C489.114 44.6102 500.16 62.9205 518.267 67.3993C536.377 71.8815 554.686 60.8368 559.168 42.7284C563.648 24.62 552.607 6.30967 534.497 1.83089C531.772 1.15856 529.043 0.835225 526.357 0.835225H526.355" fill="white"/>
</mask>
<g mask="url(#mask0_0_54)">
<path d="M563.648 0.835164H489.113V71.8831H563.648V0.835164Z" fill="url(#paint0_radial_0_54)"/>
</g>
<path d="M493.598 26.5035C498.078 8.39166 516.392 -2.6496 534.497 1.8326C552.607 6.31308 563.648 24.6217 559.168 42.7301C554.686 60.8385 536.377 71.8832 518.267 67.401C500.162 62.9205 489.114 44.6102 493.598 26.5035Z" fill="#223C72"/>
<path d="M550.342 10.8039L536.76 19.8573V2.47761C536.019 2.23982 535.265 2.02255 534.496 1.83266C528.124 0.255333 521.727 0.602618 515.916 2.50328V19.8607L502.387 10.8415C499.289 13.962 496.772 17.7188 495.062 21.9735L498.644 24.3617H494.205C493.982 25.0631 493.777 25.7765 493.597 26.5019C492.008 32.9189 492.371 39.3617 494.307 45.2056H498.733L495.188 47.5682C496.908 51.698 499.434 55.4634 502.623 58.6249L515.916 49.7648V66.7253C516.686 66.9751 517.469 67.2009 518.268 67.3976C524.608 68.9681 530.972 68.6311 536.76 66.7561V49.7631L550.105 58.6574C553.24 55.5711 555.801 51.8434 557.559 47.6127L553.941 45.2005H558.454C558.721 44.3913 558.959 43.565 559.167 42.7233C560.724 36.4294 560.404 30.1099 558.567 24.3566H554.032L557.684 21.9221C555.999 17.7753 553.505 13.9859 550.342 10.7971" fill="#EFEBE7"/>
<path d="M510.72 24.3634L498.178 16.0217C497.343 17.2877 496.589 18.6169 495.923 20.0078L502.471 24.3634H510.72ZM554.532 15.9567C553.691 14.6839 552.76 13.4693 551.751 12.3179L536.759 22.2882V24.3651H541.893L554.532 15.9584V15.9567ZM498.272 53.3386C499.117 54.608 500.05 55.8209 501.061 56.9688L515.915 47.0892V45.2056H510.501L498.272 53.3386ZM559.643 28.7036H532.419V1.38785C528.293 0.635112 524.184 0.667617 520.257 1.39469V28.7036H493.131C492.392 32.83 492.442 36.9375 493.183 40.8603H520.257V67.8287C524.384 68.5935 528.493 68.5712 532.419 67.8544V40.8603H559.574C560.354 36.7373 560.342 32.6298 559.643 28.7036ZM542.184 45.2073L554.474 53.3814C555.316 52.1205 556.077 50.7947 556.751 49.409L550.433 45.2073H542.184Z" fill="#EF3827"/>
<path d="M536.76 5.99323V8.183C536.893 7.76729 536.962 7.37381 536.963 7.00429C536.963 6.64161 536.898 6.30287 536.76 5.99152" fill="#303F66"/>
<path d="M575.998 28.6686C580.478 10.5568 598.792 -0.484507 616.897 3.9977C635.007 8.47819 646.049 26.7868 641.568 44.8952C637.086 63.0037 618.777 74.0484 600.667 69.5662C582.562 65.0874 571.514 46.7754 575.998 28.6686Z" fill="#FFD203"/>
<path d="M576.969 25.437H640.596C636.914 15.1399 628.309 6.82217 616.895 3.9977C599.895 -0.210783 582.71 9.26857 576.969 25.437Z" fill="#191407"/>
<path d="M641.834 43.7251C641.849 43.6532 641.863 43.5814 641.878 43.5095C641.904 43.3847 641.928 43.2581 641.952 43.1332C641.965 43.0613 641.979 42.9878 641.993 42.9142C642.017 42.7842 642.041 42.6542 642.063 42.5241C642.075 42.4591 642.085 42.3924 642.097 42.3274C642.124 42.1649 642.15 42.0024 642.174 41.8398C642.179 41.8073 642.184 41.7748 642.189 41.744C642.219 41.549 642.246 41.354 642.272 41.1589C642.278 41.1076 642.285 41.0563 642.29 41.005C642.309 40.8613 642.326 40.7193 642.343 40.5756C642.35 40.5071 642.359 40.4387 642.366 40.372C642.379 40.2437 642.393 40.1154 642.405 39.9871C642.412 39.9169 642.419 39.8451 642.426 39.7749C642.437 39.6449 642.448 39.5166 642.458 39.3866C642.463 39.3199 642.468 39.2549 642.473 39.1899C642.484 39.041 642.494 38.8922 642.502 38.7433C642.504 38.6989 642.508 38.6527 642.511 38.6082C642.521 38.4132 642.532 38.2181 642.538 38.0231C642.538 37.9906 642.538 37.9598 642.542 37.9273C642.547 37.7665 642.552 37.604 642.556 37.4432C642.556 37.3816 642.556 37.32 642.559 37.2601C642.561 37.1267 642.562 36.9949 642.562 36.8615C642.562 36.7948 642.562 36.7281 642.562 36.6613C642.562 36.5313 642.562 36.4013 642.559 36.2713C642.559 36.2063 642.557 36.143 642.556 36.078C642.552 35.936 642.549 35.7923 642.544 35.6503C642.544 35.6007 642.54 35.5511 642.538 35.5014C642.525 35.1148 642.502 34.7299 642.475 34.345C642.472 34.2954 642.467 34.244 642.463 34.1927C642.453 34.0524 642.441 33.9121 642.429 33.7719C642.424 33.7103 642.417 33.6487 642.412 33.5888C642.4 33.4571 642.386 33.3236 642.372 33.1919C642.366 33.132 642.359 33.0704 642.352 33.0106C642.337 32.8703 642.319 32.73 642.302 32.5897C642.297 32.5401 642.29 32.4922 642.284 32.4426C642.234 32.0594 642.177 31.6779 642.116 31.2998C642.111 31.2656 642.104 31.2314 642.099 31.1972C642.073 31.0432 642.046 30.8909 642.018 30.737C642.008 30.6839 642 30.6326 641.989 30.5796C641.964 30.4427 641.938 30.3059 641.911 30.169C641.9 30.1142 641.888 30.0612 641.878 30.0065C641.849 29.8662 641.82 29.7259 641.789 29.5856C641.779 29.5394 641.769 29.4932 641.758 29.447C641.721 29.276 641.681 29.1049 641.64 28.9338L641.632 28.8945C641.589 28.7148 641.544 28.5369 641.498 28.359C641.243 27.3685 640.942 26.3933 640.6 25.4353H576.968C576.595 26.4857 576.27 27.5618 575.996 28.6669C574.874 33.1988 574.727 37.7443 575.418 42.0811C575.422 42.0999 575.425 42.1204 575.427 42.1392C575.452 42.2983 575.478 42.4557 575.507 42.6131C575.512 42.6456 575.519 42.6798 575.524 42.7123C575.55 42.8594 575.577 43.0083 575.606 43.1554C575.615 43.1999 575.624 43.2427 575.632 43.2871C575.659 43.4257 575.687 43.566 575.716 43.7046C575.726 43.7559 575.738 43.8089 575.75 43.862C575.778 43.9937 575.807 44.1254 575.837 44.2554C575.851 44.317 575.866 44.3769 575.88 44.4385C575.909 44.5617 575.937 44.6848 575.967 44.8063C575.99 44.8987 576.014 44.9911 576.038 45.0834C576.073 45.222 576.109 45.3606 576.145 45.4992C576.181 45.636 576.219 45.7712 576.257 45.908C576.274 45.9679 576.291 46.0278 576.308 46.0877C576.345 46.216 576.381 46.346 576.421 46.4743C576.44 46.5342 576.458 46.594 576.476 46.6539C576.515 46.7822 576.554 46.9105 576.595 47.0371C576.614 47.0953 576.633 47.1552 576.652 47.2133C576.693 47.3417 576.736 47.47 576.778 47.5983C576.797 47.6547 576.818 47.7129 576.838 47.7711C576.883 47.8994 576.927 48.0277 576.973 48.156C576.984 48.1851 576.994 48.2159 577.004 48.2467C577.033 48.3253 577.061 48.4057 577.09 48.4844H640.458C640.487 48.4057 640.513 48.3253 640.542 48.2467H640.547C640.617 48.0482 640.686 47.8497 640.754 47.6496C640.761 47.6308 640.768 47.6102 640.775 47.5914C640.862 47.3314 640.947 47.0679 641.03 46.8045C641.041 46.7668 641.053 46.7309 641.064 46.6933C641.139 46.4469 641.211 46.1989 641.281 45.9491C641.296 45.8961 641.312 45.8447 641.325 45.7934C641.408 45.4957 641.486 45.1981 641.562 44.897C641.609 44.7019 641.656 44.5086 641.7 44.3136C641.714 44.2503 641.728 44.1887 641.741 44.1271C641.77 43.9937 641.801 43.8602 641.828 43.7268" fill="#EC463A"/>
<path d="M1.33781 26.503C5.8183 8.39118 24.1303 -2.64839 42.2371 1.8321C60.3472 6.3126 71.3885 24.6212 66.908 42.7297C62.4258 60.8381 44.1172 71.8828 26.007 67.4006C7.90202 62.9218 -3.14611 44.6098 1.33781 26.503Z" fill="#54B948"/>
<path d="M9.96178 22.517L9.94638 22.558L9.80268 23.0148C10.0507 22.5939 10.2954 22.1628 10.3775 21.6753L10.1825 20.813L9.63845 20.9773L9.36643 21.511L10.0285 21.4186L9.96178 22.517ZM9.34077 28.2908L9.86427 27.834C10.1671 27.3413 10.2697 26.7614 10.3467 26.1968L10.4391 25.5604L10.4647 25.5296L10.8805 24.1593L10.9831 24.1336L11.0242 24.7444L10.901 25.8016C10.8753 26.5355 10.9626 27.3464 11.4296 27.9418C11.7581 28.3626 12.3021 28.5423 12.8205 28.5269C12.8975 29.4456 13.036 30.3642 13.1233 31.2778L13.1438 31.3137L13.2311 32.2632L13.3337 33.4847H13.4312L13.7802 32.5044C13.8264 31.6165 13.6878 30.7338 13.6622 29.8459C13.6314 29.2403 13.5698 28.6347 13.5339 28.0239L14.0933 27.3721L14.391 26.8845L14.5039 26.8743L14.8683 27.7416L16.1359 28.1214L17.1573 27.4286C17.4755 26.9667 17.4395 26.3816 17.3985 25.8478C17.3061 25.1704 17.1111 24.5032 16.9417 23.8411L17.2907 23.7025L17.2804 23.2765L16.952 22.7582L16.372 22.1885L15.9306 22.635L15.6894 23.0661L15.9717 23.8975C16.2642 24.6725 16.5055 25.4783 16.603 26.2995L16.3464 26.7716L15.3969 26.5971L14.9658 25.8683C14.8118 25.2268 14.6116 24.5699 14.6886 23.9027C14.8118 23.2663 14.5603 22.5888 14.0676 22.1834L13.8777 22.2963C13.7084 22.7736 13.6468 23.3022 13.7905 23.7949C13.929 24.421 14.0522 25.0523 14.1651 25.6887L13.4569 26.8845L13.4056 26.4688L13.3491 25.971C13.2618 25.0985 13.1592 24.2209 13.1027 23.3433L13.4415 22.9635C13.4415 22.4451 13.1797 21.9781 12.9488 21.5264L12.5125 21.0132L12.0404 21.7214L12.2251 22.3886C12.1738 22.8813 12.4099 23.333 12.4612 23.8154C12.5125 24.3184 12.5228 24.8419 12.5844 25.35C12.61 25.9043 12.6665 26.4586 12.7178 27.018L12.2251 26.8743L11.6708 26.0274L11.5785 25.6784L11.5271 24.7392L11.8094 23.5742L11.8556 22.7787L11.4091 22.4451L10.7829 22.9429C10.4904 23.374 10.2697 23.8565 10.1209 24.3594L10.1106 24.3902C9.88993 25.1601 9.97718 26.0018 9.66924 26.7511L9.32538 27.0488L8.8686 26.4945C8.63252 25.8837 8.55553 25.2268 8.49908 24.5699L8.45802 23.1944L8.32458 23.1995C8.15521 23.6563 8.06796 24.1439 8.06796 24.6366L8.03717 24.6725C8.03717 25.7503 8.2168 26.8435 8.6941 27.8186L9.34077 28.2908ZM23.0543 25.273L22.5205 25.9248L22.2588 26.9153L22.7258 27.4901L23.3827 27.3362L23.9473 26.3559L23.4238 26.7665L22.8695 26.8999L22.7053 26.4124L23.198 25.2833L23.0543 25.273ZM23.7523 21.7728L23.6445 22.4913L23.547 22.4708L23.4854 22.1115L23.7523 21.7728ZM23.7933 23.5588L24.209 23.4048L24.1474 22.9532L24.4451 22.0602L24.3065 21.2185L23.5264 21.1004L22.9414 21.7728C22.7874 22.2603 22.8233 22.8454 23.239 23.1944C22.6539 24.0105 21.8738 24.6674 21.0629 25.2422L20.3649 25.7606L20.3547 25.894L21.258 25.622C22.2434 25.1396 23.1877 24.4929 23.7933 23.5588ZM15.3199 21.8959L15.5919 22.1834L15.8998 22.1988L16.177 21.783L16.0436 21.3006L15.6894 21.8087L15.4431 21.0645L15.3558 21.0696L14.9504 21.7471L14.6835 21.6804L14.6014 21.1056L14.5347 20.9362L14.4525 20.9157L14.2832 21.6188L14.7502 22.1834L15.3199 21.8959ZM11.3116 30.472L12.2046 30.1589L12.1995 29.5071L11.9531 29.5174C11.3629 29.7073 10.7778 29.9485 10.2492 30.2873C9.5358 30.7543 8.85834 31.3086 8.39643 32.0271L9.15601 31.5344C9.84374 31.1238 10.5674 30.7697 11.3116 30.472ZM9.10982 36.9746C8.93019 36.369 9.08929 35.7224 9.27405 35.1475L9.34591 33.8645L9.22786 33.8747L8.85834 35.0244C8.64278 35.5376 8.56066 36.0816 8.57093 36.6308L8.67871 37.8215L9.33564 38.3501L10.1106 37.6624L10.1311 36.7385L9.58199 37.3236L9.10982 36.9746ZM60.3695 27.7416C60.2309 26.2995 59.9538 24.8675 60.0154 23.41L60.4567 23.605L60.3746 23.0456C60.1026 22.4554 59.8306 21.8652 59.574 21.2595L59.3071 20.8541L59.0197 21.0543L58.6091 21.7266L58.6964 22.5324C58.7528 23.1585 58.8862 23.8 58.9273 24.4262L59.0146 25.2473L59.1275 26.2481C59.3482 28.1933 59.5637 30.1435 59.6972 32.099C59.7485 33.0587 59.769 34.0492 59.4251 34.9679C59.148 35.7531 58.5988 36.4306 57.9624 36.9695C57.4697 37.4057 56.9052 37.7445 56.3817 38.1345L55.9506 38.6016L57.1259 38.4527C58.0035 38.2372 58.8503 37.7958 59.42 37.0875C59.9794 36.4101 60.2976 35.5786 60.4619 34.7216L60.4824 34.6959C60.6158 33.8953 60.6928 33.0844 60.6723 32.2735C60.6415 30.7646 60.5286 29.2505 60.3695 27.7416ZM54.3288 29.3275C54.3202 28.8451 54.2467 28.3575 54.2467 27.8699C54.8215 28.6962 55.4168 29.5123 55.9916 30.3334L56.1302 30.8159C56.2175 31.3907 56.2893 31.9655 56.3509 32.5506C56.4074 33.2383 56.3714 33.926 56.3612 34.6138L56.5151 34.9525L56.7974 34.0698L56.859 33.0022C56.8077 32.4531 56.8231 31.8937 56.7666 31.3496C57.3927 32.1811 57.9984 33.0279 58.568 33.9055L59.1172 34.8139L59.2147 34.8088L59.148 33.5001C58.876 32.5557 58.2396 31.791 57.7058 30.9852C57.3517 30.4464 56.9668 29.9331 56.628 29.3788C56.5562 28.7476 56.51 28.1112 56.4587 27.4799C56.3714 26.5663 56.2175 24.693 56.2175 24.693L56.1969 23.8719L56.392 23.9797L56.5408 23.9232L56.5613 23.4459C56.4022 22.8762 56.2636 22.2963 56.1045 21.7266L55.735 20.8541L55.4373 20.9927L54.9652 21.8138L55.0165 22.4554C55.0473 23.6153 55.1807 24.77 55.3244 25.9248C55.4271 26.6331 55.5605 27.3362 55.6529 28.0444C55.1397 27.3157 54.6059 26.5971 54.0927 25.8786C54.0722 25.1139 53.9849 24.3594 53.9541 23.5947L54.298 23.723L54.2621 23.374C54.0311 22.6401 53.7642 21.9267 53.4871 21.2082L53.2253 20.9824L52.6659 21.9524L52.8301 22.83C52.8507 23.3022 52.9431 23.7795 52.9636 24.2568L52.1475 23.0918H52.4298L52.5273 22.9583L52.3888 22.6761C51.9525 22.2244 51.4342 21.8652 51.0544 21.3673L50.5103 21.1364L50.4795 21.3827L50.4488 22.5016L50.9466 23.5434C51.6908 24.4467 52.3888 25.3962 53.1278 26.3097L53.2202 27.2541C53.2407 27.7211 53.3023 28.183 53.3126 28.6603L53.3382 28.6911C53.4358 30.3745 53.6051 32.0476 53.5179 33.731L53.1997 34.6651L52.5889 35.0244L51.8396 34.7062L50.8696 33.5668L50.3153 33.5565L49.6789 34.4393C49.2375 35.1681 48.8423 35.9225 48.478 36.6975L48.0417 37.3134L47.5182 37.3031L47.123 36.6462L47.5747 36.8309L48.2008 36.3588C48.5293 35.7737 48.7294 35.1167 48.8064 34.4495C48.9142 33.4744 48.6832 32.5095 48.5139 31.5549C48.4677 30.9391 48.3599 30.3232 48.3137 29.697L48.2932 29.6662C48.1905 28.7116 48.0674 27.7673 47.9545 26.8127C47.8929 26.0942 47.78 25.3808 47.7492 24.6623L48.478 24.3492L48.3496 23.5178C48.016 23.0148 47.8108 22.4348 47.6157 21.8652L47.2565 20.8695L46.7381 20.5256L46.1684 20.8079L45.5731 21.9781C45.4653 22.5529 45.6039 23.1277 45.7424 23.682C45.881 24.1952 45.9323 24.7187 45.9939 25.2473C46.1787 26.5817 46.3429 27.9213 46.5225 29.2557C46.6252 30.1076 46.7381 30.9698 46.8561 31.8218C46.9793 33.033 47.2873 34.2443 47.1384 35.4657L46.9691 36.2253L46.8254 35.127L46.7638 33.8183L46.6663 33.8029L46.3583 34.9063C46.2146 35.671 46.035 36.4819 46.2659 37.2415C46.4148 37.7547 46.8767 38.0627 47.2616 38.3911L47.9647 38.7401L48.4369 38.4373C48.9091 37.8215 49.2786 37.1235 49.5968 36.4101L50.2897 35.2091L50.5925 35.0346L51.1467 35.7378C51.5625 36.1843 52.1629 36.4203 52.7686 36.4409C53.2972 36.4563 53.7745 36.1227 54.0722 35.6967C54.4981 35.0654 54.5443 34.2853 54.57 33.5463L54.5443 33.5155C54.4981 32.1195 54.4109 30.7235 54.3288 29.3275ZM53.9131 37.8215L54.1902 37.0208L54.1286 36.8823L53.2219 36.8104L53.0679 37.2569L53.4888 37.647L52.8934 38.4784L53.3143 38.694L54.428 38.1602L54.4229 37.842L53.9148 37.8215H53.9131ZM15.8075 31.0725L15.7305 30.2565L15.8588 30.1897L16.3104 30.3848L16.7518 30.898L15.8075 31.0725ZM18.0503 37.0824C18.5994 36.6051 18.9844 35.9584 19.1794 35.2604C19.436 34.3366 19.4411 33.3512 19.3693 32.3966L19.3231 31.17L19.3693 30.9031L19.4873 30.9083L20.329 31.5139L21.4222 31.2367L21.8482 30.8261L22.0073 30.7954L22.3717 31.1854L23.3417 31.3445L23.8703 30.8877L24.0294 29.5893L23.8703 28.763L23.3417 29.1017L23.3827 29.3788L23.4443 30.046L23.0697 30.5593L22.5205 30.2L22.2331 28.9631L22.1151 28.9477L21.571 30.1795L20.8269 30.6978L20.3136 30.354L20.1956 29.2608L19.9338 29.0401L19.205 29.6457C19.1537 28.8297 19.1024 28.0136 19.0408 27.2027C18.9946 26.2225 18.8868 25.2473 18.8355 24.2671L19.164 24.4416L19.4001 24.2414L19.3488 23.5691C19.1281 23.0558 18.9638 22.5221 18.7739 22.0037L18.4455 21.1723L17.9836 21.4956L17.585 22.055L17.7338 22.6761L17.7235 23.0661L17.8262 24.4005L17.8672 24.806L17.8929 24.8419L18.0366 26.1455L18.0571 26.1763C18.1957 27.5004 18.3805 28.8194 18.4215 30.1487L17.7081 30.549L16.7433 29.3326L15.9221 29.0042L15.2138 29.5687L14.7725 30.6568L14.793 31.8423L14.9931 32.1503L16.0093 32.3145L17.1846 31.9399L17.123 32.7354L16.8408 33.1305L15.568 34.2648C15.0907 34.5932 14.5518 34.8807 13.9718 34.973L12.8478 34.624C12.2987 34.0082 12.1652 33.1254 12.232 32.3248L12.273 31.5447L11.96 32.099C11.8368 32.5763 11.7495 33.069 11.7495 33.5668C11.7393 34.08 11.7444 34.6086 11.9754 35.0859C12.273 35.6659 12.8068 36.174 13.4688 36.2612C14.29 36.3742 15.0701 36.0046 15.763 35.6248C16.6765 35.1065 17.549 34.3623 17.8724 33.3256L17.8929 33.2896C18.0366 32.7559 17.9647 32.1965 17.9545 31.6473L18.5088 31.3342C18.5293 31.945 18.4934 32.5609 18.5088 33.1665L18.3907 34.4598L18.3753 34.4957C18.2316 35.0398 17.8621 35.4914 17.4207 35.825C16.7125 36.4255 15.8605 36.8412 14.9777 37.1081C14.4748 37.2569 13.9513 37.3647 13.4124 37.3442C12.8478 37.3442 12.2525 37.1543 11.8778 36.7129C11.4211 36.2048 11.2979 35.5017 11.2209 34.8499V33.8645L11.2466 32.4274C10.8514 33.1254 10.7436 33.9414 10.6666 34.7267C10.605 35.6659 10.7179 36.6308 11.1131 37.4981L11.6725 38.2064C12.1345 38.5554 12.7298 38.6683 13.3046 38.6786C14.2849 38.6888 15.26 38.4425 16.1787 38.1037C16.8408 37.8471 17.5234 37.57 18.052 37.0824M26.5305 27.4491L27.208 26.8999C27.4852 26.2584 27.7007 25.5861 27.9214 24.924L28.2755 24.2055L28.3833 24.2311L28.4038 24.6623C28.3268 25.3141 28.3012 25.9915 28.4552 26.6382L29.1839 27.7776L30.5645 27.8289C31.2728 27.5415 31.8681 26.9974 32.2325 26.3251C32.6226 26.8178 33.0845 27.3362 33.7363 27.4748L34.9372 26.8948C35.3119 26.2892 35.4453 25.5501 35.3735 24.8521C35.3119 24.3543 35.2247 23.8616 35.0963 23.374L34.8705 22.6658L35.3478 22.9583L35.6506 22.9789L35.6044 22.5016L34.8397 21.2441L34.2854 20.9619L34.0186 21.4392L33.649 22.0602L34.0237 23.0045C34.2033 23.5588 34.3727 24.1336 34.4651 24.7187L34.4189 26.0685L33.8595 26.4329L33.2025 25.9402C32.8279 25.3654 32.6585 24.6828 32.5507 24.0156C32.5302 23.3535 32.4943 22.7017 32.3762 22.055C32.2941 21.5623 32.1658 21.0645 31.9041 20.6334H31.7706L31.3498 21.4648L31.4473 22.2141C31.6115 23.0251 31.786 23.8514 31.7655 24.6828L31.4422 25.9094L30.4567 26.6536L29.5175 26.6638L29.071 25.7452C29.0556 24.8778 29.03 24.0156 29.1685 23.1585L29.2353 22.3373L28.9684 21.9781L28.5373 22.1628C28.178 22.6145 27.8957 23.1277 27.6289 23.6409C27.2645 24.3594 26.936 25.0985 26.6948 25.8581L26.1918 26.2584L25.5195 25.3551L25.422 24.9548C25.3193 24.4108 25.3091 23.8514 25.3501 23.2971L25.499 22.3065L25.4014 22.3117C25.1294 22.8557 24.9857 23.4664 24.9139 24.072C24.7958 25.0574 25.0832 26.0788 25.7042 26.8486L26.5305 27.4491ZM52.346 54.9154C52.009 54.9548 51.6685 54.9531 51.3281 54.9514C51.1228 54.9514 50.9158 54.9496 50.7088 54.9565L50.2777 54.6383L49.9595 54.8179L49.9389 54.977C49.3949 55.0283 48.8509 55.0129 48.312 55.0232L47.9989 54.6178L47.9938 54.1456C49.4616 54.1045 50.9346 54.0635 52.4076 54.0173L52.346 54.9154ZM52.5462 52.7188C51.0219 52.7188 49.5027 52.7701 47.9784 52.7907L47.9887 52.3134L48.2658 51.6923L47.8552 51.0508L47.6191 51.0457L47.2137 51.7026L47.537 52.3903L47.5473 52.7804C41.9377 52.8522 36.3281 52.8522 30.7185 52.8266C30.1334 52.8351 29.5483 52.8266 28.9633 52.818C28.4877 52.8112 28.0104 52.8043 27.5313 52.8061C24.688 52.7958 21.8448 52.7599 18.9963 52.7291C18.2829 52.7308 17.5696 52.7188 16.8579 52.7068C16.1428 52.6931 15.4277 52.6812 14.7126 52.6829C15.0718 53.2526 15.6569 53.6324 16.2779 53.8582C17.3044 54.2277 18.413 54.3201 19.501 54.3817C20.6712 54.4484 21.8465 54.4022 23.0166 54.4484C26.7427 54.4843 30.4687 54.4638 34.1845 54.4125C37.5872 54.3817 40.9899 54.3098 44.3978 54.2328C45.4653 54.2072 46.5328 54.1712 47.6003 54.1712V54.628L47.2719 55.1053L47.78 55.9675H47.8826L48.2367 55.4595C48.791 55.4595 49.3453 55.4133 49.8996 55.4235L50.3153 55.752L50.7105 55.3773C51.3058 55.3671 51.9012 55.3619 52.4914 55.3619L52.9379 55.7315L53.7488 55.521L54.103 54.2123L53.718 53.0421L52.5479 52.7188H52.5462ZM51.7712 29.153C51.1502 29.7484 50.3906 30.1949 49.7542 30.7748L49.6002 31.2111L50.2161 30.898C50.7088 30.4977 51.2579 30.1692 51.8122 29.851L52.3922 29.4815L52.3614 28.7578L51.7712 29.153ZM41.9582 22.6658L41.9736 23.9643L42.3124 23.5588C42.5946 22.8762 42.4253 22.1012 42.0968 21.4648L41.599 21.0594L41.3013 21.783L41.5425 22.0653L41.9582 22.6658ZM42.2713 24.9189L42.066 25.5758L41.8864 25.6631L41.6708 25.1498L41.5784 25.1293L41.7067 26.1147L42.3329 25.817L42.7691 26.089L43.1233 25.971L43.19 25.8016L43.1233 24.7546L43.0103 24.7803L42.9334 24.9548L42.5998 25.622L42.3534 25.0061L42.2713 24.9189ZM44.0676 25.5142C44.2216 26.7973 44.355 28.0906 44.4474 29.3788C44.55 30.6568 44.5757 31.945 44.6629 33.2281C44.7143 33.7259 44.7245 34.2289 44.704 34.7318C44.6578 35.4401 44.3088 36.1021 43.8213 36.6154C43.2054 37.2877 42.533 37.9395 41.7119 38.3604L40.4031 38.8838V39.0019L41.327 39.0532C41.8812 39.0019 42.4663 38.9916 42.959 38.7094C43.5749 38.3501 43.9957 37.7701 44.4577 37.2415C45.053 36.5846 45.2994 35.6967 45.3969 34.8345C45.4841 33.9876 45.4995 33.1254 45.4482 32.2735C45.4225 30.898 45.3199 29.5174 45.1659 28.1471C45.0222 26.7049 44.8066 25.2576 44.8734 23.8052L45.3199 23.9283L45.284 23.4972L44.9401 22.286L44.8528 21.9319L44.8374 21.8959L44.5757 21.1672L44.3242 21.2595L43.6981 21.9267L43.5954 22.6247L43.734 23.0045C43.852 23.8411 43.9598 24.6777 44.0676 25.5142ZM49.5181 27.018L49.7234 26.823L50.3957 27.9315L50.6421 28.3421L50.8525 28.0239C50.8782 27.4696 50.8422 26.9102 50.8525 26.3508L51.0321 26.0018L51.5659 26.1147L51.5556 25.776L51.3195 25.2935L51.1502 25.2114L50.5651 25.8581L50.6113 26.9769L50.5548 27.4953L50.2058 26.8178L49.6413 25.8786L49.3436 25.9505L49.241 26.2995V26.8127L49.2974 27.0077L49.5181 27.018ZM30.3969 22.9635L30.4123 24.108H30.5149L30.674 23.5178C30.7202 22.9224 30.7356 22.3065 30.5508 21.7368L30.2224 21.198L29.8836 21.4443L29.9658 21.8652L30.3969 22.9635ZM52.4606 32.3453C52.6095 31.7961 52.3836 31.2162 52.0141 30.8056L51.6394 30.6978L51.3366 31.2419L52.0244 31.9142L52.0192 32.8329L52.4606 32.3453ZM36.0116 22.6042L36.6275 23.1277C37.5 24.2876 38.3879 25.4424 39.1628 26.6638C39.2449 27.1565 39.3014 27.6595 39.363 28.1573L39.3835 28.1881L39.4913 28.9734C39.7017 30.6824 39.9532 32.3966 40.0661 34.1211C40.0764 34.8601 40.1482 35.6248 39.9224 36.3485L39.8608 37.1183L40.1996 36.7539C40.6615 35.6762 40.759 34.4855 40.7333 33.3256L40.7025 33.2896C40.6974 32.1965 40.4613 31.1238 40.4049 30.0358C40.3792 29.4815 40.3125 28.9323 40.2919 28.3729C41.3903 30.1179 42.5296 31.8526 43.4124 33.7156L43.9975 34.9525L44.1412 34.9268C44.1617 34.1981 43.9205 33.4847 43.6536 32.8123C43.1866 31.6986 42.5963 30.6516 41.9856 29.6149C41.4262 28.6706 40.8462 27.7416 40.2509 26.8281L40.1226 26.0223C40.0764 25.4475 40.0764 24.8778 40.0661 24.303L40.4356 24.4416L40.5126 24.2979L40.3638 23.5383C40.1482 22.8711 39.8506 22.2347 39.5734 21.5777L39.2706 21.2493L38.896 21.5623L38.6753 22.2757L38.896 22.8967C38.8857 23.6101 39.0551 24.3133 39.1064 25.0266L39.0551 24.9086C38.6393 24.3492 38.2596 23.7641 37.8695 23.1893L38.5264 23.2047L38.198 22.5683C37.6642 21.9986 37.0637 21.5059 36.4838 20.9875L36.0219 20.8592L35.9449 20.9927L35.9962 21.9524L36.0116 22.6042ZM31.993 29.6765H32.1213L32.5114 29.9126L33.0195 29.4404L32.7783 28.2908L32.691 29.1017L32.5832 29.4507L32.4395 29.461L32.1419 28.9631L31.8852 28.5987L31.798 29.2659L31.6902 29.579L31.4901 29.5841L31.1821 28.7476L31.1051 28.6244L31.2078 29.9485L31.6646 30.1487L31.993 29.6765ZM21.6412 34.737L21.7849 34.6856L22.1647 33.8029L22.1287 32.8277L21.323 32.6532L21.2819 33.3358L21.8003 33.4128L21.7746 34.1673L21.6412 34.737ZM35.0758 29.4045L36.0099 29.8253L36.3076 30.046L35.1066 30.3745L34.9886 29.5328L35.0758 29.4045ZM39.0174 32.8175L38.032 32.838C36.6925 32.9099 35.353 32.9355 34.0134 32.9355C33.8663 32.9355 33.7209 32.9355 33.5738 32.9355C33.1717 32.9355 32.768 32.9355 32.366 32.9064C33.2385 32.4343 34.1674 32.0904 35.1015 31.7517L35.6609 31.8235L35.6506 31.5772C36.1485 31.3821 36.6771 31.1871 37.062 30.7971L37.5752 29.6526L36.8619 28.5902C36.3897 28.2874 35.8713 27.9743 35.2965 27.9948L34.501 28.4105L33.8851 29.6526L34.1828 30.6688C33.3924 30.9048 32.6174 31.1974 31.8476 31.4848L30.7647 31.9775L30.2104 32.9013L30.0821 33.6404L30.5953 33.7892C31.1239 33.8251 31.6474 33.8046 32.1709 33.8559C32.6688 33.8918 33.182 33.974 33.5977 34.2562L33.7773 34.4307C33.1204 34.6873 32.4583 35.1185 32.1915 35.801L32.1709 36.9507C31.4422 36.7505 30.6928 36.3707 30.3079 35.6933C29.8511 34.8926 29.8101 33.9534 29.6561 33.0707C29.574 32.4856 29.4354 31.9159 29.3276 31.3411V31.4232C29.0813 30.3454 28.6297 29.319 28.178 28.313L27.8701 27.7125L27.4338 28.4311L27.3158 29.3754C27.634 30.2428 27.9265 31.1204 28.1985 32.0083L28.2191 32.0442L28.5373 33.1271L28.5527 33.1579L28.7939 34.0561C28.3115 34.9799 27.7007 35.8267 26.9463 36.535C26.3817 37.0482 25.7402 37.5255 24.9755 37.6538L23.9079 37.469L23.6616 36.6376C24.452 36.227 25.1397 35.6522 25.7556 35.0158C26.2534 34.5334 26.6896 33.9586 26.8795 33.2914C27.0027 32.7525 26.9771 32.193 26.8795 31.6593L26.7615 31.2179L26.4433 30.3044L26.7923 30.2325L26.4433 29.4165L25.7607 28.6364L25.386 28.6158L25.0524 29.2368L24.8933 29.8989L25.3142 30.2633C25.5297 30.7714 25.8069 31.2487 26.043 31.7465L26.2072 32.6806L25.5708 33.6711C25.0216 34.1331 24.4828 34.636 23.8823 35.0363V34.3435L23.872 33.4248H23.7642C23.4563 33.938 23.2561 34.5026 23.0611 35.062L22.8712 35.7395L22.7583 35.8678C21.7626 36.5555 20.7208 37.1714 19.6533 37.7462L18.2983 38.4647L18.2727 38.6187L18.6165 38.6392C20.0485 38.2235 21.465 37.7667 22.8148 37.1406C22.8815 37.6435 22.9995 38.1876 23.3742 38.5571C23.7848 39.0036 24.452 39.0652 25.0216 39.0036C25.9609 38.865 26.741 38.2697 27.4184 37.6333C28.0754 36.9866 28.6502 36.2784 29.1685 35.5188C29.456 36.2578 29.8717 36.9507 30.4773 37.4742C31.4319 38.321 32.715 38.7111 33.9672 38.8445L34.6909 38.6289L34.8962 37.6846L34.075 37.351L33.0845 36.6581L33.0948 35.9396L34.1417 35.3648C35.2657 34.9542 36.4153 34.6001 37.5906 34.3691L38.576 34.1125L38.9712 33.317L39.0174 32.8192V32.8175ZM57.6819 24.4621L57.7691 25.2833H57.8769L58.0873 24.1234C58.0565 23.3946 57.9385 22.635 57.5125 22.0191L57.0865 22.4605L57.1532 22.9224C57.4509 23.3843 57.6049 23.9181 57.6819 24.4621ZM37.0723 38.581C37.6471 38.5913 38.0987 38.1705 38.535 37.8523L38.9456 37.4006L38.6274 37.4365C38.1347 37.611 37.6933 37.9498 37.1595 38.0011L37.0518 37.8009L37.2211 36.6513L36.3486 37.0106L35.9175 37.3955L36.6241 37.2415L36.5214 38.3193L37.0706 38.581H37.0723Z" fill="white"/>
<defs>
<radialGradient id="paint0_radial_0_54" cx="0" cy="0" r="1" gradientUnits="userSpaceOnUse" gradientTransform="translate(525.03 33.8676) scale(33.7824 33.7824)">
<stop stop-color="white"/>
<stop offset="0.78" stop-color="white"/>
<stop offset="0.82" stop-color="#F9F8F7"/>
<stop offset="0.88" stop-color="#E9E5E3"/>
<stop offset="0.94" stop-color="#CFC8C1"/>
<stop offset="1" stop-color="#B6ABA1"/>
</radialGradient>
</defs>
</svg>
