<svg width="174" height="35" viewBox="0 0 174 35" fill="none" xmlns="http://www.w3.org/2000/svg">
<path d="M16.4489 2.92705C16.7483 2.00574 18.0517 2.00574 18.3511 2.92705L21.082 11.3321C21.2159 11.7441 21.5999 12.0231 22.0331 12.0231H30.8707C31.8394 12.0231 32.2422 13.2627 31.4585 13.8321L24.3087 19.0267C23.9582 19.2814 23.8116 19.7328 23.9454 20.1448L26.6764 28.5498C26.9758 29.4712 25.9213 30.2373 25.1376 29.6679L17.9878 24.4733C17.6373 24.2186 17.1627 24.2186 16.8122 24.4733L9.66243 29.6679C8.87872 30.2373 7.82424 29.4712 8.12359 28.5498L10.8546 20.1448C10.9884 19.7327 10.8418 19.2814 10.4913 19.0267L3.34151 13.8321C2.5578 13.2627 2.96058 12.0231 3.9293 12.0231H12.7669C13.2001 12.0231 13.5841 11.7441 13.718 11.3321L16.4489 2.92705Z" fill="#FFD90F"/>
<path d="M51.2497 2.92705C51.5491 2.00574 52.8525 2.00574 53.1518 2.92705L55.8828 11.3321C56.0167 11.7441 56.4006 12.0231 56.8339 12.0231H65.6715C66.6402 12.0231 67.043 13.2627 66.2593 13.8321L59.1095 19.0267C58.759 19.2814 58.6123 19.7328 58.7462 20.1448L61.4772 28.5498C61.7765 29.4712 60.7221 30.2373 59.9383 29.6679L52.7886 24.4733C52.4381 24.2186 51.9635 24.2186 51.613 24.4733L44.4632 29.6679C43.6795 30.2373 42.625 29.4712 42.9244 28.5498L45.6553 20.1448C45.7892 19.7327 45.6426 19.2814 45.2921 19.0267L38.1423 13.8321C37.3586 13.2627 37.7614 12.0231 38.7301 12.0231H47.5677C48.0009 12.0231 48.3849 11.7441 48.5188 11.3321L51.2497 2.92705Z" fill="#FFD90F"/>
<path d="M86.0486 2.92705C86.3479 2.00574 87.6513 2.00574 87.9507 2.92705L90.6816 11.3321C90.8155 11.7441 91.1995 12.0231 91.6327 12.0231H100.47C101.439 12.0231 101.842 13.2627 101.058 13.8321L93.9083 19.0267C93.5578 19.2814 93.4112 19.7328 93.545 20.1448L96.276 28.5498C96.5754 29.4712 95.5209 30.2373 94.7372 29.6679L87.5874 24.4733C87.2369 24.2186 86.7623 24.2186 86.4118 24.4733L79.262 29.6679C78.4783 30.2373 77.4239 29.4712 77.7232 28.5498L80.4542 20.1448C80.588 19.7327 80.4414 19.2814 80.0909 19.0267L72.9411 13.8321C72.1574 13.2627 72.5602 12.0231 73.5289 12.0231H82.3665C82.7997 12.0231 83.1837 11.7441 83.3176 11.3321L86.0486 2.92705Z" fill="#FFD90F"/>
<path d="M120.849 2.92705C121.149 2.00574 122.452 2.00574 122.751 2.92705L125.482 11.3321C125.616 11.7441 126 12.0231 126.433 12.0231H135.271C136.24 12.0231 136.643 13.2627 135.859 13.8321L128.709 19.0267C128.359 19.2814 128.212 19.7328 128.346 20.1448L131.077 28.5498C131.376 29.4712 130.322 30.2373 129.538 29.6679L122.388 24.4733C122.038 24.2186 121.563 24.2186 121.213 24.4733L114.063 29.6679C113.279 30.2373 112.225 29.4712 112.524 28.5498L115.255 20.1448C115.389 19.7327 115.242 19.2814 114.892 19.0267L107.742 13.8321C106.958 13.2627 107.361 12.0231 108.33 12.0231H117.167C117.601 12.0231 117.984 11.7441 118.118 11.3321L120.849 2.92705Z" fill="#FFD90F"/>
<path d="M155.648 2.92705C155.948 2.00574 157.251 2.00574 157.55 2.92705L160.281 11.3321C160.415 11.7441 160.799 12.0231 161.232 12.0231H170.07C171.039 12.0231 171.441 13.2627 170.658 13.8321L163.508 19.0267C163.157 19.2814 163.011 19.7328 163.145 20.1448L165.876 28.5498C166.175 29.4712 165.12 30.2373 164.337 29.6679L157.187 24.4733C156.837 24.2186 156.362 24.2186 156.011 24.4733L148.862 29.6679C148.078 30.2373 147.023 29.4712 147.323 28.5498L150.054 20.1448C150.188 19.7327 150.041 19.2814 149.691 19.0267L142.541 13.8321C141.757 13.2627 142.16 12.0231 143.129 12.0231H151.966C152.399 12.0231 152.783 11.7441 152.917 11.3321L155.648 2.92705Z" fill="#FFD90F"/>
</svg>
