<svg width="33" height="33" viewBox="0 0 33 33" fill="none" xmlns="http://www.w3.org/2000/svg">
<path d="M0.487423 12.537C2.67577 3.69085 11.6197 -1.70189 20.4633 0.487293C29.3086 2.67564 34.7014 11.6179 32.513 20.4624C30.3238 29.3068 21.3816 34.7012 12.5363 32.5121C3.69349 30.3245 -1.7026 21.3806 0.487423 12.537Z" fill="#EF3827"/>
<path d="M14.7984 23.117C10.9598 23.117 7.84898 20.0062 7.84898 16.1676C7.84898 12.329 10.9598 9.22069 14.7984 9.22069C16.7127 9.22069 18.4456 9.99359 19.7007 11.2461C18.1465 9.02182 15.5671 7.56543 12.6476 7.56543C7.89744 7.56543 4.04297 11.4166 4.04297 16.1676C4.04297 20.9186 7.89744 24.7697 12.6476 24.7697C15.5671 24.7697 18.1465 23.3134 19.7007 21.0924C18.4465 22.3416 16.7127 23.1178 14.7984 23.1178" fill="white"/>
<path d="M23.1285 12.4797L24.7336 14.7943L27.4333 13.9838L25.7254 16.2281L27.3297 18.5451L24.6701 17.6135L22.9622 19.8553L23.0248 17.0361L20.3652 16.1044L23.0658 15.2981L23.1285 12.4797Z" fill="white"/>
</svg>
