<svg width="33" height="33" viewBox="0 0 33 33" fill="none" xmlns="http://www.w3.org/2000/svg">
<g clip-path="url(#clip0_401_82)">
<path d="M16.5 33C25.6127 33 33 25.6127 33 16.5C33 7.3873 25.6127 0 16.5 0C7.3873 0 0 7.3873 0 16.5C0 25.6127 7.3873 33 16.5 33Z" fill="#9146FF"/>
<path d="M24.6476 16.9082L21.3891 20.1667H18.1307L15.278 23.0193V20.1667H11.6113V7.94446H24.6476V16.9082Z" fill="white"/>
<path d="M10.7975 6.31396L6.72266 10.3889V25.0555H11.6115V29.1304L15.6864 25.0555H18.9449L26.2782 17.7222V6.31396H10.7975ZM24.6502 16.9057L21.3918 20.1642H18.1333L15.2807 23.0169V20.1642H11.614V7.94197H24.6502V16.9057Z" fill="black"/>
<path d="M22.2066 10.7971H20.5762V15.686H22.2066V10.7971Z" fill="black"/>
<path d="M17.7222 10.7971H16.0918V15.686H17.7222V10.7971Z" fill="black"/>
</g>
<defs>
<clipPath id="clip0_401_82">
<rect width="33" height="33" fill="white"/>
</clipPath>
</defs>
</svg>
