<svg width="33" height="33" viewBox="0 0 33 33" fill="none" xmlns="http://www.w3.org/2000/svg">
<path d="M0.487423 12.537C2.67577 3.69085 11.6205 -1.70189 20.4633 0.487293C29.3086 2.67564 34.7014 11.6179 32.513 20.4624C30.3238 29.3068 21.3816 34.7012 12.5363 32.5121C3.69349 30.3245 -1.7026 21.3806 0.487423 12.537Z" fill="#F1F2F2"/>
<path d="M31.7585 10.226H18.9785V12.7519H32.5698C32.3676 11.8862 32.0944 11.0423 31.7585 10.226ZM28.4964 5.17245H18.9785V7.70087H30.4542C29.886 6.79929 29.23 5.95203 28.4964 5.17245ZM4.58667 27.9107H28.4179C29.1557 27.142 29.8225 26.2972 30.4049 25.3848H2.60304C3.17958 26.2864 3.84386 27.1328 4.58667 27.9107ZM20.4641 0.486587C19.9686 0.363758 19.4731 0.266832 18.9785 0.190796V2.64653H25.465C23.9693 1.67894 22.2907 0.938628 20.4641 0.486587ZM32.955 15.277H18.9785V17.8054H32.9458C33.0143 16.9548 33.016 16.11 32.955 15.277ZM1.2795 22.8597H31.7242C32.0434 22.0935 32.3083 21.293 32.5138 20.4625C32.5247 20.419 32.5339 20.3756 32.5447 20.3313H0.453125C0.661181 21.1978 0.937754 22.0434 1.2795 22.8589M12.5379 32.5114C13.5139 32.7528 14.4915 32.9016 15.4607 32.9642H17.5605C20.3521 32.7854 23.0184 31.8972 25.3254 30.4366H7.66908C9.13132 31.3625 10.7649 32.0735 12.5379 32.5114Z" fill="#EF3827"/>
<path d="M17.7265 16.8794L17.3705 16.6195L17.0129 16.8794L17.1491 16.4607L16.7931 16.2009H17.2335L17.3705 15.7823L17.505 16.2009H17.9462L17.5903 16.4607L17.7265 16.8794ZM15.9743 3.58466L16.1097 4.00578L15.7537 3.74592L15.3969 4.00578L15.5339 3.58466L15.1772 3.3273H15.6175L15.7545 2.90618L15.8907 3.3273H16.3319L15.9751 3.58466H15.9743ZM15.9743 7.38315L16.1097 7.80176L15.7537 7.5419L15.3969 7.80176L15.5339 7.38315L15.1772 7.12328H15.6175L15.7545 6.70467L15.8907 7.12328H16.3319L15.9751 7.38315H15.9743ZM15.9417 11.1039L16.0779 11.5225L15.7211 11.2627L15.3652 11.5225L15.5014 11.1039L15.1437 10.8441H15.5849L15.7211 10.4254L15.8565 10.8441H16.2977L15.9417 11.1039ZM16.0453 15.2007L15.6885 14.9408L15.3326 15.2007L15.4679 14.7821L15.1111 14.5222H15.5523L15.6885 14.1036L15.8239 14.5222H16.2651L15.9083 14.7821L16.0453 15.2007ZM14.2915 5.42458L14.4285 5.8432L14.0725 5.58584L13.7141 5.8432L13.8511 5.42458L13.4952 5.16472H13.9355L14.0725 4.7461L14.2071 5.16472H14.6474L14.2915 5.42458ZM14.2915 9.10525L14.4285 9.52387L14.0725 9.26401L13.7141 9.52387L13.8511 9.10525L13.4952 8.84539H13.9355L14.0725 8.42677L14.2071 8.84539H14.6474L14.2915 9.10525ZM14.2915 12.867L14.4285 13.2881L14.0725 13.0282L13.7141 13.2881L13.8511 12.867L13.4952 12.6096H13.9355L14.0725 12.1885L14.2071 12.6096H14.6474L14.2915 12.867ZM14.4285 16.8794L14.0725 16.6195L13.7141 16.8794L13.8511 16.4607L13.4952 16.2009H13.9355L14.0725 15.7823L14.2071 16.2009H14.6474L14.2915 16.4607L14.4285 16.8794ZM12.6746 3.58466L12.8117 4.00578L12.4549 3.74592L12.0973 4.00578L12.2343 3.58466L11.8783 3.3273H12.3187L12.4549 2.90618L12.5911 3.3273H13.0323L12.6755 3.58466H12.6746ZM12.6746 7.38315L12.8117 7.80176L12.4549 7.5419L12.0973 7.80176L12.2343 7.38315L11.8783 7.12328H12.3187L12.4549 6.70467L12.5911 7.12328H13.0323L12.6755 7.38315H12.6746ZM12.6429 11.1039L12.7791 11.5225L12.4215 11.2627L12.0655 11.5225L12.2017 11.1039L11.8449 10.8441H12.2853L12.4223 10.4254L12.5585 10.8441H12.9997L12.6437 11.1039H12.6429ZM12.7457 15.2007L12.3897 14.9408L12.0329 15.2007L12.1683 14.7821L11.8123 14.5222H12.2527L12.3897 14.1036L12.5259 14.5222H12.9663L12.6103 14.7821L12.7465 15.2007H12.7457ZM10.9935 1.74725L11.1297 2.16587L10.7737 1.90601L10.4161 2.16587L10.5523 1.74725L10.1963 1.48739H10.6375L10.7737 1.06877L10.9099 1.48739H11.3511L10.9943 1.74725H10.9935ZM10.9935 5.42541L11.1297 5.84403L10.7737 5.58668L10.4161 5.84403L10.5523 5.42541L10.1963 5.16555H10.6375L10.7737 4.74693L10.9099 5.16555H11.3511L10.9943 5.42541H10.9935ZM10.9935 9.10608L11.1297 9.5247L10.7737 9.26484L10.4161 9.5247L10.5523 9.10608L10.1963 8.84622H10.6375L10.7737 8.4276L10.9099 8.84622H11.3511L10.9943 9.10608H10.9935ZM10.9935 12.8678L11.1297 13.2889L10.7737 13.0291L10.4161 13.2889L10.5523 12.8678L10.1963 12.6105H10.6375L10.7737 12.1893L10.9099 12.6105H11.3511L10.9943 12.8678H10.9935ZM11.1297 16.8802L10.7737 16.6203L10.4161 16.8802L10.5523 16.4616L10.1963 16.2017H10.6375L10.7737 15.7831L10.9099 16.2017H11.3511L10.9943 16.4616L11.1305 16.8802H11.1297ZM9.37749 3.45348L9.51452 3.8746L9.15606 3.61474L8.80011 3.8746L8.93715 3.45348L8.58036 3.19612H9.0207L9.1569 2.7775L9.29393 3.19612H9.73428L9.37833 3.45348H9.37749ZM9.37749 7.25113L9.51452 7.66974L9.15606 7.41239L8.80011 7.66974L8.93715 7.25113L8.58036 6.99126H9.0207L9.1569 6.57265L9.29393 6.99126H9.73428L9.37833 7.25113H9.37749ZM9.34407 10.9727L9.4811 11.3914L9.12515 11.1315L8.76669 11.3914L8.90372 10.9727L8.54777 10.7129H8.98812L9.12515 10.2943L9.25968 10.7129H9.70085L9.34407 10.9727ZM9.44851 15.072L9.09173 14.8122L8.73577 15.072L8.87197 14.6509L8.51435 14.3935H8.95469L9.09173 13.9749L9.22792 14.3935H9.6691L9.31315 14.6509L9.44935 15.072H9.44851ZM7.69633 5.42625L7.83336 5.84487L7.47741 5.58751L7.11895 5.84487L7.25599 5.42625L6.90003 5.16639H7.33871L7.47657 4.74777L7.6111 5.16639H8.05145L7.69549 5.42625H7.69633ZM7.69633 9.10692L7.83336 9.52554L7.47741 9.26568L7.11895 9.52554L7.25599 9.10692L6.90003 8.84706H7.33871L7.47657 8.42844L7.6111 8.84706H8.05145L7.69549 9.10692H7.69633ZM7.69633 12.8686L7.83336 13.2898L7.47741 13.0299L7.11895 13.2898L7.25599 12.8686L6.90003 12.6113H7.33871L7.47657 12.1902L7.6111 12.6113H8.05145L7.69549 12.8686H7.69633ZM7.83336 16.881L7.47741 16.6212L7.11895 16.881L7.25599 16.4624L6.90003 16.2026H7.33871L7.47657 15.7839L7.6111 16.2026H8.05145L7.69549 16.4624L7.83253 16.881H7.83336ZM6.07951 7.21603L6.2157 7.63465L5.85975 7.37479L5.50213 7.63465L5.63916 7.21603L5.28238 6.95617H5.72356L5.85975 6.53755L5.99512 6.95617H6.43713L6.08034 7.21603H6.07951ZM6.04692 10.9376L6.18312 11.3563L5.82717 11.0964L5.46954 11.3563L5.60574 10.9376L5.24979 10.6778H5.69013L5.82717 10.2592L5.96169 10.6778H6.40287L6.04692 10.9376ZM6.14886 15.0344L5.79291 14.7746L5.43696 15.0344L5.57232 14.6158L5.2147 14.3559H5.65587L5.79207 13.9373L5.92911 14.3559H6.36945L6.01183 14.6158L6.14802 15.0344H6.14886ZM13.9347 1.48739L14.0717 1.06877L14.2062 1.48739H14.6466L14.2906 1.74725L14.4277 2.16587L14.0717 1.90601L13.7132 2.16587L13.8503 1.74725L13.4943 1.48739H13.9347ZM17.2327 12.6105L17.3697 12.1893L17.5042 12.6105H17.9454L17.5894 12.8678L17.7256 13.2889L17.3697 13.0291L17.0121 13.2889L17.1483 12.8678L16.7923 12.6105H17.2327ZM17.2327 8.84622L17.3697 8.4276L17.5042 8.84622H17.9454L17.5894 9.10608L17.7256 9.5247L17.3697 9.26484L17.0121 9.5247L17.1483 9.10608L16.7923 8.84622H17.2327ZM17.2327 5.16555L17.3697 4.74693L17.5042 5.16555H17.9454L17.5894 5.42541L17.7256 5.84403L17.3697 5.58668L17.0121 5.84403L17.1483 5.42541L16.7923 5.16555H17.2327ZM17.2327 1.48739L17.3697 1.06877L17.5042 1.48739H17.9454L17.5894 1.74725L17.7256 2.16587L17.3697 1.90601L17.0121 2.16587L17.1483 1.74725L16.7923 1.48739H17.2327ZM4.39751 9.10525L4.53371 9.52387L4.17692 9.26401L3.82097 9.52387L3.95717 9.10525L3.60038 8.84539H4.04072L4.17776 8.42677L4.31396 8.84539H4.75513L4.39835 9.10525H4.39751ZM4.39751 12.867L4.53371 13.2881L4.17692 13.0282L3.82097 13.2881L3.95717 12.867L3.60038 12.6096H4.04072L4.17776 12.1885L4.31396 12.6096H4.75513L4.39835 12.867H4.39751ZM4.53371 16.8794L4.17692 16.6195L3.82097 16.8794L3.95717 16.4607L3.59955 16.2009H4.03989L4.17692 15.7823L4.31312 16.2009H4.75513L4.39835 16.4607L4.53454 16.8794H4.53371ZM2.74727 10.8708L2.8843 11.2894L2.52751 11.0296L2.17156 11.2894L2.30776 10.8708L1.95097 10.6109H2.39215L2.52751 10.1923L2.66455 10.6109H3.10489L2.7481 10.8708H2.74727ZM2.85171 14.9676L2.49576 14.7077L2.1373 14.9676L2.27434 14.549L1.91839 14.2891H2.35873L2.49576 13.8705L2.63029 14.2891H3.0723L2.71468 14.549L2.85171 14.9676ZM1.23573 16.8802L0.879776 16.6203L0.522988 16.8802L0.659186 16.4616L0.303234 16.2017H0.744414L0.880611 15.7831L1.01764 16.2017H1.45632L1.10037 16.4616L1.23656 16.8802H1.23573ZM18.9765 0.190587C18.8144 0.16552 17.612 0.0335003 17.4499 0.0142822L14.4845 0.123741C11.4104 0.502253 8.52772 1.74223 6.15387 3.65067L6.21487 3.83784L6.06029 3.72503C5.51466 4.17039 4.99661 4.65168 4.51031 5.16555H4.75346L4.39668 5.42541L4.53287 5.84403L4.17609 5.58668L4.03404 5.68945C3.70148 6.07298 3.38564 6.47238 3.08818 6.88765H3.13748L3.03387 6.96286C2.96201 7.06479 2.89015 7.16757 2.8208 7.27118L2.91605 7.56613L2.71969 7.42409C1.71618 8.94816 0.949128 10.6644 0.486224 12.5361C0.480375 12.5603 0.474526 12.5854 0.468677 12.6096H0.741907L0.878104 12.1885L1.01514 12.6096H1.45381L1.09786 12.867L1.23406 13.2881L0.878104 13.0282L0.521317 13.2881L0.657515 12.867L0.445281 12.7132C0.0391953 14.4328 -0.0819619 16.1541 0.0525643 17.8269H18.9765V0.190587Z" fill="#223C72"/>
</svg>
