<svg width="106" height="39" viewBox="0 0 106 39" fill="none" xmlns="http://www.w3.org/2000/svg">
<path d="M47.3192 6H17.8736C16.1186 6.00562 14.4371 6.70526 13.1962 7.9462C11.9553 9.18714 11.2556 10.8686 11.25 12.6236L11.25 25.4163C11.2555 27.1713 11.9551 28.8528 13.1961 30.0938C14.437 31.3347 16.1186 32.0343 17.8736 32.0398H39.4348L47.3734 38.4781V32.0398C49.1194 32.021 50.7878 31.3154 52.0175 30.0759C53.2473 28.8363 53.9396 27.1624 53.9446 25.4163V12.6236C53.9387 10.8684 53.2388 9.18676 51.9975 7.94582C50.7562 6.70488 49.0744 6.00537 47.3192 6Z" fill="#FAFAFA"/>
<path d="M17.4193 21.0975C17.6123 21.5804 17.9341 22.001 18.3498 22.3134C18.7578 22.6207 19.2564 22.7836 19.7671 22.7766C20.157 22.7875 20.5413 22.6824 20.8714 22.4746C21.0185 22.3831 21.1387 22.2542 21.2197 22.1011C21.3007 21.9479 21.3395 21.776 21.3322 21.6029C21.3322 21.0551 20.9092 20.6359 20.0631 20.3453L18.6022 19.8423C17.8056 19.588 17.0792 19.1518 16.4804 18.5681C16.2178 18.2916 16.0133 17.9654 15.8788 17.6086C15.7444 17.2518 15.6828 16.8717 15.6976 16.4907C15.6898 15.9916 15.7906 15.4967 15.9931 15.0405C16.1863 14.6148 16.471 14.237 16.8268 13.9339C17.1985 13.6191 17.6262 13.3772 18.0876 13.2211C18.6 13.0483 19.138 12.9633 19.6787 12.9696C20.548 12.9597 21.403 13.1919 22.1479 13.6403C22.8797 14.0773 23.4613 14.7265 23.8154 15.5018L21.6417 16.7093C21.4627 16.3267 21.2048 15.9864 20.8848 15.7107C20.5628 15.4354 20.1504 15.2889 19.7268 15.2994C19.3766 15.2824 19.0307 15.3828 18.744 15.5847C18.625 15.6706 18.5288 15.7842 18.4637 15.9157C18.3985 16.0472 18.3664 16.1926 18.3702 16.3392C18.3669 16.4701 18.3933 16.5999 18.4476 16.719C18.5018 16.8381 18.5824 16.9433 18.6833 17.0266C18.9428 17.2337 19.2372 17.3927 19.5527 17.4963L21.1354 18.0831C21.965 18.3422 22.7157 18.8067 23.3179 19.4333C23.7932 19.9907 24.0443 20.7049 24.0224 21.4371C24.0328 21.9831 23.9104 22.5236 23.6658 23.0119C23.436 23.461 23.1129 23.8558 22.7181 24.1699C22.3098 24.4893 21.8475 24.7328 21.3531 24.8887C20.8276 25.0577 20.2788 25.1426 19.7268 25.1402C19.2334 25.1424 18.7419 25.0775 18.266 24.9471C17.8133 24.8236 17.3802 24.6372 16.9792 24.3936C16.5823 24.1506 16.2251 23.8482 15.9199 23.4968C15.6009 23.1294 15.3479 22.7096 15.1719 22.256L17.4193 21.0975Z" fill="#224ABE"/>
<path d="M62.0981 12.9645C62.7137 12.9579 63.3267 13.0458 63.9156 13.2252C64.4328 13.3807 64.9123 13.6412 65.3242 13.9904C65.7151 14.3303 66.0268 14.7518 66.2372 15.2253C66.6777 16.2947 66.6777 17.4949 66.2372 18.5644C66.027 19.0379 65.7153 19.4595 65.3242 19.7992C64.9122 20.1483 64.4327 20.4088 63.9156 20.5644C63.3267 20.7437 62.7137 20.8317 62.0981 20.8252H60.5696V25.1398H57.9609V12.9645H62.0981ZM60.5696 18.5125H62.1509C62.616 18.5314 63.0724 18.3836 63.4381 18.0956C63.5975 17.9427 63.7244 17.7591 63.811 17.5559C63.8977 17.3527 63.9423 17.134 63.9423 16.9131C63.9423 16.6922 63.8977 16.4736 63.811 16.2703C63.7244 16.0671 63.5975 15.8835 63.4381 15.7306C63.0725 15.4425 62.616 15.2947 62.1509 15.3137H60.5682L60.5696 18.5125Z" fill="#FAFAFA"/>
<path d="M67.2091 20.5945C67.204 19.9957 67.32 19.402 67.5501 18.8491C67.7803 18.2963 68.1197 17.7956 68.5482 17.3772C68.9744 16.9657 69.4763 16.6407 70.0262 16.4203C71.2115 15.9569 72.5279 15.9569 73.7132 16.4203C74.2631 16.6408 74.765 16.9658 75.1912 17.3772C75.6187 17.7969 75.9583 18.2975 76.1902 18.8499C76.422 19.4024 76.5414 19.9954 76.5414 20.5945C76.5414 21.1936 76.422 21.7867 76.1902 22.3391C75.9583 22.8915 75.6187 23.3922 75.1912 23.8118C74.7652 24.2234 74.2632 24.5483 73.7132 24.7683C72.528 25.2322 71.2114 25.2322 70.0262 24.7683C69.4761 24.5484 68.9742 24.2235 68.5482 23.8118C68.1197 23.3934 67.7803 22.8928 67.5501 22.3399C67.32 21.787 67.204 21.1933 67.2091 20.5945ZM69.7136 20.5945C69.7104 20.8934 69.7696 21.1896 69.8873 21.4644C69.9976 21.7219 70.1538 21.9573 70.3481 22.1592C70.542 22.358 70.7726 22.5173 71.0271 22.6284C71.4227 22.7973 71.8601 22.8429 72.282 22.7592C72.7039 22.6755 73.0906 22.4663 73.3917 22.1592C73.5862 21.9575 73.7424 21.722 73.8526 21.4644C73.9673 21.1888 74.0264 20.8932 74.0264 20.5947C74.0264 20.2962 73.9673 20.0007 73.8526 19.7251C73.7415 19.4674 73.5846 19.232 73.3894 19.0303C73.0883 18.7232 72.7015 18.514 72.2796 18.4303C71.8578 18.3466 71.4204 18.3922 71.0248 18.5611C70.7704 18.6723 70.5398 18.8317 70.3458 19.0303C70.1515 19.2322 69.9954 19.4676 69.885 19.7251C69.7683 19.9999 69.7097 20.296 69.7136 20.5945Z" fill="#FAFAFA"/>
<path d="M77.8185 20.5943C77.8134 19.9955 77.9294 19.4018 78.1595 18.8489C78.3896 18.296 78.7291 17.7954 79.1576 17.377C79.5837 16.9654 80.0857 16.6404 80.6356 16.4201C81.8208 15.9567 83.137 15.9567 84.3221 16.4201C84.872 16.6405 85.374 16.9655 85.8002 17.377C86.2276 17.7967 86.5671 18.2974 86.7988 18.8498C87.0306 19.4022 87.15 19.9952 87.15 20.5943C87.15 21.1933 87.0306 21.7864 86.7988 22.3388C86.5671 22.8912 86.2276 23.3919 85.8002 23.8116C85.3742 24.2232 84.8722 24.5481 84.3221 24.7681C83.1371 25.232 81.8207 25.232 80.6356 24.7681C80.0855 24.5482 79.5835 24.2233 79.1576 23.8116C78.7291 23.3932 78.3896 22.8925 78.1595 22.3397C77.9294 21.7868 77.8134 21.1931 77.8185 20.5943ZM80.323 20.5943C80.32 20.8931 80.3792 21.1893 80.4967 21.4641C80.6075 21.722 80.7645 21.9574 80.9598 22.1589C81.1537 22.3577 81.3844 22.5171 81.6389 22.6281C82.0345 22.797 82.4719 22.8425 82.8939 22.7588C83.3158 22.6751 83.7027 22.466 84.0039 22.1589C84.1991 21.9573 84.3561 21.7219 84.4671 21.4641C84.5818 21.1886 84.6408 20.893 84.6408 20.5945C84.6408 20.296 84.5818 20.0005 84.4671 19.7249C84.356 19.4672 84.199 19.2318 84.0039 19.0301C83.7027 18.723 83.3158 18.5139 82.8939 18.4301C82.4719 18.3464 82.0345 18.392 81.6389 18.5609C81.3844 18.6721 81.1538 18.8314 80.9598 19.0301C80.7646 19.2317 80.6077 19.4671 80.4967 19.7249C80.3794 19.9996 80.3205 20.2956 80.3235 20.5943H80.323Z" fill="#FAFAFA"/>
<path d="M91.152 12.9648V25.1388H88.6133V12.9648H91.152Z" fill="#FAFAFA"/>
<path d="M39.1215 12.9648V25.1388H36.5828V17.461L33.4141 25.1388H31.5461L28.3918 17.4957V25.1383H25.8535V12.9648H29.0361L32.5308 21.4347L36.3567 12.9648H39.1215Z" fill="#224ABE"/>
<path d="M43.3213 21.0977C43.5143 21.5805 43.8362 22.0011 44.2519 22.3135C44.6599 22.6208 45.1585 22.7837 45.6692 22.7767C46.0591 22.7876 46.4434 22.6825 46.7734 22.4747C46.9206 22.3832 47.0408 22.2543 47.1218 22.1012C47.2027 21.948 47.2416 21.7761 47.2343 21.603C47.2343 21.0552 46.8113 20.636 45.9652 20.3455L44.5052 19.8401C43.7086 19.5858 42.9822 19.1496 42.3834 18.5659C42.1208 18.2894 41.9163 17.9632 41.7818 17.6064C41.6474 17.2496 41.5858 16.8695 41.6006 16.4885C41.5928 15.9894 41.6936 15.4945 41.8961 15.0383C42.0893 14.6126 42.374 14.2348 42.7298 13.9317C43.1015 13.6169 43.5292 13.375 43.9906 13.2189C44.503 13.0461 45.0409 12.961 45.5817 12.9674C46.451 12.9575 47.306 13.1897 48.0509 13.6381C48.7839 14.0738 49.3669 14.7223 49.7225 15.4973L47.5488 16.7048C47.3699 16.3222 47.112 15.9819 46.792 15.7062C46.4698 15.4312 46.0575 15.2847 45.634 15.2949C45.2839 15.278 44.9382 15.3784 44.6516 15.5802C44.5327 15.6661 44.4365 15.7797 44.3713 15.9112C44.3062 16.0427 44.2741 16.1881 44.2778 16.3347C44.2745 16.4655 44.301 16.5954 44.3552 16.7145C44.4094 16.8336 44.4901 16.9387 44.5909 17.0221C44.8505 17.2291 45.1449 17.3882 45.4603 17.4918L47.043 18.0786C47.8726 18.3377 48.6233 18.8022 49.2255 19.4288C49.7008 19.9862 49.9519 20.7004 49.93 21.4326C49.9405 21.9786 49.8181 22.5191 49.5734 23.0074C49.3436 23.4565 49.0205 23.8513 48.6257 24.1654C48.2176 24.4856 47.7553 24.7299 47.2607 24.8865C46.7353 25.0555 46.1864 25.1404 45.6345 25.138C45.1412 25.1402 44.6498 25.0752 44.174 24.9449C43.7214 24.8214 43.2883 24.635 42.8873 24.3914C42.4898 24.1486 42.1319 23.8462 41.8262 23.4947C41.5072 23.1272 41.2541 22.7074 41.0781 22.2538L43.3213 21.0977Z" fill="#224ABE"/>
</svg>
